# xmcd
#
# Track frame offsets:
#  150
#  13825
#  24183
#  35309
#  46686
#  55045
#  64547
#  74321
#  86295
#  99983
#
# Disc length: 1513 seconds
#
# Revision: 0
# Processed by: cddbd v1.5.1PL0 Copyright (c) Steve Scherf et al.
# Submitted via: Collectorz.com Music Collector 6.9
#
DISCID=6905e70a
DTITLE=Red McCoy and The Sons Of The Soil - Country and Gospel Songs
DYEAR=1900
DGENRE=Gospel
TTITLE0=Tragic Love Affair
TTITLE1=Darling Do
TTITLE2=She's Coming Home Today
TTITLE3=Farther Along
TTITLE4=When God Called Daddy Away
TTITLE5=By and By 
TTITLE6=Let's Grow Old Together
TTITLE7=What's The Use
TTITLE8=What A Friend We Have In Jesus
TTITLE9=Never Alone
EXTD=
EXTT0=
EXTT1=
EXTT2=
EXTT3=
EXTT4=
EXTT5=
EXTT6=
EXTT7=
EXTT8=
EXTT9=
PLAYORDER=
